<svg width="96" height="96" viewBox="0 0 96 96" fill="none" xmlns="http://www.w3.org/2000/svg">
  <rect width="96" height="96" rx="22" fill="url(#paint0_linear_1_3)"/>
  <path d="M23 62V29.5C23 25.9 25.9 23 29.5 23H63C66.3 23 69 25.7 69 29V66.5C69 69 67 71 64.5 71H32C27 71 23 67 23 62Z" fill="white" fill-opacity="0.92"/>
  <path d="M34 35H58" stroke="#311343" stroke-width="5" stroke-linecap="round"/>
  <path d="M34 47H62" stroke="#00B49F" stroke-width="5" stroke-linecap="round"/>
  <path d="M34 59H51" stroke="#FF7B51" stroke-width="5" stroke-linecap="round"/>
  <path d="M69 66.5H33C29.7 66.5 27 64.5 27 61.5C27 58.7 29.7 56.5 33 56.5H69V66.5Z" fill="#C1C5D0"/>
  <path d="M32 61.5H64" stroke="white" stroke-opacity="0.8" stroke-width="3" stroke-linecap="round"/>
  <defs>
    <linearGradient id="paint0_linear_1_3" x1="8" y1="4" x2="90" y2="92" gradientUnits="userSpaceOnUse">
      <stop stop-color="#501A8E"/>
      <stop offset="0.52" stop-color="#007BC3"/>
      <stop offset="1" stop-color="#00B49F"/>
    </linearGradient>
  </defs>
</svg>
